<mxfile host="65bd71144e">
    <diagram id="cOlsokg0wopFhThmWkgF" name="Page-1">
        <mxGraphModel dx="1470" dy="719" grid="1" gridSize="10" guides="1" tooltips="1" connect="1" arrows="1" fold="1" page="1" pageScale="1" pageWidth="1169" pageHeight="1654" math="0" shadow="0">
            <root>
                <mxCell id="0"/>
                <mxCell id="1" parent="0"/>
                <mxCell id="42" value="Host" style="swimlane;fontStyle=1;align=center;verticalAlign=top;childLayout=stackLayout;horizontal=1;startSize=26;horizontalStack=0;resizeParent=1;resizeParentMax=0;resizeLast=0;collapsible=1;marginBottom=0;strokeColor=default;fontFamily=Helvetica;fontSize=14;fontColor=default;fillColor=none;html=1;" parent="1" vertex="1">
                    <mxGeometry x="160" y="149" width="356" height="164" as="geometry"/>
                </mxCell>
                <mxCell id="43" value="- ipv4 : std::net::IpAddr" style="text;strokeColor=none;fillColor=none;align=left;verticalAlign=top;spacingLeft=4;spacingRight=4;overflow=hidden;rotatable=0;points=[[0,0.5],[1,0.5]];portConstraint=eastwest;fontFamily=Helvetica;fontSize=14;fontColor=default;startSize=26;html=1;" parent="42" vertex="1">
                    <mxGeometry y="26" width="356" height="26" as="geometry"/>
                </mxCell>
                <mxCell id="44" value="" style="line;strokeWidth=1;fillColor=none;align=left;verticalAlign=middle;spacingTop=-1;spacingLeft=3;spacingRight=3;rotatable=0;labelPosition=right;points=[];portConstraint=eastwest;strokeColor=inherit;fontFamily=Helvetica;fontSize=14;fontColor=default;startSize=26;html=1;" parent="42" vertex="1">
                    <mxGeometry y="52" width="356" height="8" as="geometry"/>
                </mxCell>
                <mxCell id="71" value="+ new(mode: usize, ipv4_str: &amp;amp;String) : Result&amp;lt;Host, ()&amp;gt;" style="text;strokeColor=none;fillColor=none;align=left;verticalAlign=top;spacingLeft=4;spacingRight=4;overflow=hidden;rotatable=0;points=[[0,0.5],[1,0.5]];portConstraint=eastwest;fontFamily=Helvetica;fontSize=14;fontColor=default;startSize=26;html=1;" parent="42" vertex="1">
                    <mxGeometry y="60" width="356" height="26" as="geometry"/>
                </mxCell>
                <mxCell id="63" value="+ scan() : None" style="text;strokeColor=none;fillColor=none;align=left;verticalAlign=top;spacingLeft=4;spacingRight=4;overflow=hidden;rotatable=0;points=[[0,0.5],[1,0.5]];portConstraint=eastwest;fontFamily=Helvetica;fontSize=14;fontColor=default;startSize=26;html=1;" parent="42" vertex="1">
                    <mxGeometry y="86" width="356" height="26" as="geometry"/>
                </mxCell>
                <mxCell id="45" value="- tcpScan() : None" style="text;strokeColor=none;fillColor=none;align=left;verticalAlign=top;spacingLeft=4;spacingRight=4;overflow=hidden;rotatable=0;points=[[0,0.5],[1,0.5]];portConstraint=eastwest;fontFamily=Helvetica;fontSize=14;fontColor=default;startSize=26;html=1;" parent="42" vertex="1">
                    <mxGeometry y="112" width="356" height="26" as="geometry"/>
                </mxCell>
                <mxCell id="46" value="- udpScan() : None" style="text;strokeColor=none;fillColor=none;align=left;verticalAlign=top;spacingLeft=4;spacingRight=4;overflow=hidden;rotatable=0;points=[[0,0.5],[1,0.5]];portConstraint=eastwest;fontFamily=Helvetica;fontSize=14;fontColor=default;startSize=26;html=1;" parent="42" vertex="1">
                    <mxGeometry y="138" width="356" height="26" as="geometry"/>
                </mxCell>
                <mxCell id="70" style="edgeStyle=none;html=1;entryX=1;entryY=0.5;entryDx=0;entryDy=0;endArrow=diamondThin;endFill=1;endSize=16;fontSize=14;" parent="1" source="47" target="43" edge="1">
                    <mxGeometry relative="1" as="geometry"/>
                </mxCell>
                <mxCell id="47" value="ScanMode" style="swimlane;fontStyle=1;align=center;verticalAlign=top;childLayout=stackLayout;horizontal=1;startSize=26;horizontalStack=0;resizeParent=1;resizeParentMax=0;resizeLast=0;collapsible=1;marginBottom=0;fontSize=14;" parent="1" vertex="1">
                    <mxGeometry x="650" y="80" width="336" height="216" as="geometry"/>
                </mxCell>
                <mxCell id="52" value="- lowerRange : u16" style="text;strokeColor=none;fillColor=none;align=left;verticalAlign=top;spacingLeft=4;spacingRight=4;overflow=hidden;rotatable=0;points=[[0,0.5],[1,0.5]];portConstraint=eastwest;fontSize=14;" parent="47" vertex="1">
                    <mxGeometry y="26" width="336" height="26" as="geometry"/>
                </mxCell>
                <mxCell id="53" value="- upperRange : u16" style="text;strokeColor=none;fillColor=none;align=left;verticalAlign=top;spacingLeft=4;spacingRight=4;overflow=hidden;rotatable=0;points=[[0,0.5],[1,0.5]];portConstraint=eastwest;fontSize=14;" parent="47" vertex="1">
                    <mxGeometry y="52" width="336" height="26" as="geometry"/>
                </mxCell>
                <mxCell id="54" value="- portList : Option&lt;Vec&lt;u16&gt;&gt;" style="text;strokeColor=none;fillColor=none;align=left;verticalAlign=top;spacingLeft=4;spacingRight=4;overflow=hidden;rotatable=0;points=[[0,0.5],[1,0.5]];portConstraint=eastwest;fontSize=14;" parent="47" vertex="1">
                    <mxGeometry y="78" width="336" height="26" as="geometry"/>
                </mxCell>
                <mxCell id="49" value="" style="line;strokeWidth=1;fillColor=none;align=left;verticalAlign=middle;spacingTop=-1;spacingLeft=3;spacingRight=3;rotatable=0;labelPosition=right;points=[];portConstraint=eastwest;strokeColor=inherit;fontSize=14;" parent="47" vertex="1">
                    <mxGeometry y="104" width="336" height="8" as="geometry"/>
                </mxCell>
                <mxCell id="50" value="+ new(usize) : ScanMode" style="text;strokeColor=none;fillColor=none;align=left;verticalAlign=top;spacingLeft=4;spacingRight=4;overflow=hidden;rotatable=0;points=[[0,0.5],[1,0.5]];portConstraint=eastwest;fontSize=14;" parent="47" vertex="1">
                    <mxGeometry y="112" width="336" height="26" as="geometry"/>
                </mxCell>
                <mxCell id="60" value="+ getUpper() : u16" style="text;strokeColor=none;fillColor=none;align=left;verticalAlign=top;spacingLeft=4;spacingRight=4;overflow=hidden;rotatable=0;points=[[0,0.5],[1,0.5]];portConstraint=eastwest;fontSize=14;" parent="47" vertex="1">
                    <mxGeometry y="138" width="336" height="26" as="geometry"/>
                </mxCell>
                <mxCell id="61" value="+ getLower() : u16" style="text;strokeColor=none;fillColor=none;align=left;verticalAlign=top;spacingLeft=4;spacingRight=4;overflow=hidden;rotatable=0;points=[[0,0.5],[1,0.5]];portConstraint=eastwest;fontSize=14;" parent="47" vertex="1">
                    <mxGeometry y="164" width="336" height="26" as="geometry"/>
                </mxCell>
                <mxCell id="62" value="+ getList() : Option&lt;Vec&lt;u16&gt;&gt;" style="text;strokeColor=none;fillColor=none;align=left;verticalAlign=top;spacingLeft=4;spacingRight=4;overflow=hidden;rotatable=0;points=[[0,0.5],[1,0.5]];portConstraint=eastwest;fontSize=14;" parent="47" vertex="1">
                    <mxGeometry y="190" width="336" height="26" as="geometry"/>
                </mxCell>
            </root>
        </mxGraphModel>
    </diagram>
</mxfile>